<?xml version="1.0" encoding="UTF-8"?>
<svg width="1638px" height="1748px" viewBox="0 0 1638 1748" version="1.1" xmlns="http://www.w3.org/2000/svg" xmlns:xlink="http://www.w3.org/1999/xlink">
    <!-- Generator: Sketch 43.2 (39069) - http://www.bohemiancoding.com/sketch -->
    <title>Acadia-A</title>
    <desc>Created with Sketch.</desc>
    <defs>
        <filter x="-10.5%" y="-9.0%" width="120.9%" height="119.3%" filterUnits="objectBoundingBox" id="filter-1">
            <feOffset dx="0" dy="10" in="SourceAlpha" result="shadowOffsetOuter1"></feOffset>
            <feGaussianBlur stdDeviation="48.5" in="shadowOffsetOuter1" result="shadowBlurOuter1"></feGaussianBlur>
            <feColorMatrix values="0 0 0 0 0   0 0 0 0 0   0 0 0 0 0  0 0 0 0.5 0" type="matrix" in="shadowBlurOuter1" result="shadowMatrixOuter1"></feColorMatrix>
            <feMerge>
                <feMergeNode in="shadowMatrixOuter1"></feMergeNode>
                <feMergeNode in="SourceGraphic"></feMergeNode>
            </feMerge>
        </filter>
        <linearGradient x1="101.257467%" y1="-27.1521166%" x2="101.257467%" y2="88.4820608%" id="linearGradient-2">
            <stop stop-color="#1D2671" offset="0%"></stop>
            <stop stop-color="#C33764" offset="100%"></stop>
        </linearGradient>
    </defs>
    <g id="Page-1" stroke="none" stroke-width="1" fill="none" fill-rule="evenodd">
        <g id="Acadia-A" filter="url(#filter-1)" transform="translate(96.000000, 86.000000)" fill-rule="nonzero" fill="url(#linearGradient-2)">
            <path d="M724,9.9475983e-14 L582.146587,0 C582.146587,0 199.073819,1111.78258 104.366633,1364.01446 C73.7065321,1399.34498 -4.54747351e-13,1399.34498 -4.54747351e-13,1399.34498 L-4.54747351e-13,1556 L598.874785,1556 L598.874785,1410.71856 C598.874785,1410.71856 403.383447,1392.11115 476.581442,1256.31739 L724,1256.31739 L724,1012 L521,1012 L723,401 L722.791807,220.207461 L706.797901,239.397628 L690.400124,260.609757 L654.573929,305.525509 L629.167351,343.247044 L611.869407,369.323404 L605.542107,383.412571 L602.896232,392.668384 C602.896232,392.668384 603.618847,396.479157 602.896232,398.116892 C601.844638,400.500223 599.347814,400.710514 599.347814,400.710514 C599.347814,400.710514 595.718629,401.076497 592.222477,399.724843 C587.025717,397.715713 581.961991,393.988946 581.961991,393.988946 C581.961991,393.988946 580.017469,391.119715 580.000148,388.051165 C579.980655,384.597657 581.888363,380.944829 581.888363,380.944829 L593.13927,357.625975 L603.147994,338.72483 L615.835845,321.631146 L710.557704,200.488536 C710.557704,200.488536 693.397516,179.725304 680.187141,165.788144 C672.102165,152.844887 676.861984,146.544983 676.861984,146.544983 L670.126165,145.95358 C670.126165,145.95358 666.125758,159.600871 657.621198,168.335662 C644.455232,181.858049 626.785113,190.467937 626.785113,190.467937 C626.785113,190.467937 613.27509,181.138168 605.542107,169.296618 C598.214502,158.075826 596.663937,144.343254 596.663937,144.343254 L628.611575,124.750951 L655.227084,126.033512 L657.621198,121.55405 L648.360634,114.307582 L650.369979,107.989783 L664.233511,99.0522347 L671.50848,101.078206 L674.707757,113.402664 L680.187141,112.614127 L690.799143,100.161412 L702.648579,110.167761 L705.871607,113.452541 L707.866701,126.653416 L690.326496,131.835912 L689.735093,138.880495 L697.012437,143.530965 L702.496572,148.749087 L722.791807,182.174638 L724,9.9475983e-14 Z" id="Combined-Shape"></path>
            <path d="M722.791807,182.174638 L722,7.10542736e-15 L863.853413,0 C863.853413,0 1246.92618,1111.78258 1341.63337,1364.01446 C1372.29347,1399.34498 1446,1399.34498 1446,1399.34498 L1446,1556 L847.125215,1556 L847.125215,1410.71856 C847.125215,1410.71856 1042.61655,1392.11115 969.418558,1256.31739 L722,1256.31739 L722,1012 L925,1012 L723,401 L722.791807,220.029007 L739.161893,239.345394 L755.55967,260.557523 L791.385866,305.473274 L816.792443,343.19481 L834.090387,369.271169 L840.417687,383.360336 L843.063562,392.616149 C843.063562,392.616149 842.340947,396.426923 843.063562,398.064657 C844.115156,400.447988 846.61198,400.65828 846.61198,400.65828 C846.61198,400.65828 850.241166,401.024262 853.737317,399.672608 C858.934077,397.663478 863.997803,393.936712 863.997803,393.936712 C863.997803,393.936712 865.942325,391.067481 865.959646,387.99893 C865.979139,384.545422 864.071431,380.892594 864.071431,380.892594 L852.820524,357.57374 L842.8118,338.672595 L830.123949,321.578911 L735.40209,200.436302 C735.40209,200.436302 752.562278,179.673069 765.772653,165.735909 C773.857629,152.792653 769.097811,146.492748 769.097811,146.492748 L775.833629,145.901345 C775.833629,145.901345 779.834036,159.548636 788.338596,168.283427 C801.504562,181.805815 819.174681,190.415702 819.174681,190.415702 C819.174681,190.415702 832.684704,181.085933 840.417687,169.244384 C847.745292,158.023591 849.295857,144.291019 849.295857,144.291019 L817.34822,124.698717 L790.73271,125.981277 L788.338596,121.501815 L797.59916,114.255347 L795.589815,107.937548 L781.726283,99 L774.451314,101.025971 L771.252038,113.350429 L765.772653,112.561892 L755.160651,100.109178 L743.311215,110.115526 L740.088187,113.400307 L738.093093,126.601182 L755.633298,131.783677 L756.224701,138.82826 L748.947357,143.478731 L743.463222,148.696853 L722.791807,182.174638 Z" id="Combined-Shape"></path>
        </g>
    </g>
</svg>