<?xml version="1.0" encoding="UTF-8"?>
<svg width="277px" height="277px" viewBox="0 0 277 277" version="1.1" xmlns="http://www.w3.org/2000/svg" xmlns:xlink="http://www.w3.org/1999/xlink">
    <!-- Generator: Sketch 43 (38999) - http://www.bohemiancoding.com/sketch -->
    <title>Combined Shape</title>
    <desc>Created with Sketch.</desc>
    <defs></defs>
    <g id="Page-1" stroke="none" stroke-width="1" fill="none" fill-rule="evenodd">
        <path d="M20.6194405,212 C9.17276159,193.753427 1.86164768,172.648793 -4.74065232e-14,150 L276.058743,150 C274.197095,172.648793 266.885981,193.753427 255.439302,212 L20.6194405,212 Z M39.6626984,236 C64.7596724,261.318661 99.5632354,277 138.029371,277 C176.495507,277 211.29907,261.318661 236.396044,236 L39.6626984,236 Z M0.0858234091,126 C2.11500876,103.315876 9.61334692,82.2065105 21.2527405,64 L254.806002,64 C266.445396,82.2065105 273.943734,103.315876 275.972919,126 L0.0858234091,126 Z M40.6640591,40 C65.6813797,15.2690824 100.072233,0 138.029371,0 C175.98651,0 210.377363,15.2690824 235.394683,40 L40.6640591,40 Z" id="Combined-Shape" fill="#FFFFFF" transform="translate(138.029371, 138.500000) rotate(-40.000000) translate(-138.029371, -138.500000) "></path>
    </g>
</svg>